<svg xmlns="http://www.w3.org/2000/svg" xmlns:xlink="http://www.w3.org/1999/xlink" xmlns:lucid="lucid" width="1411.6" height="533"><g transform="translate(-557.5000265449072 -19.5)" lucid:page-tab-id="0_0"><path d="M500 0h1500v1000H500z" fill="#fff"/><path d="M820 306a6 6 0 0 1 6-6h235.7a6 6 0 0 1 6 6v220a6 6 0 0 1-6 6H826a6 6 0 0 1-6-6z" fill="#fff"/><path d="M820 306a6 6 0 0 1 6-6h235.7a6 6 0 0 1 6 6v220a6 6 0 0 1-6 6H826a6 6 0 0 1-6-6zM820 340h247.7M864 340v192M983.85 340v192" stroke="#3a414a" fill="none"/><use xlink:href="#a" transform="matrix(1,0,0,1,830,300) translate(59.599999999999994 23.6)"/><use xlink:href="#b" transform="matrix(1,0,0,1,825,342.5) translate(5 17.1)"/><use xlink:href="#c" transform="matrix(1,0,0,1,869,342.5) translate(0 17.1)"/><use xlink:href="#d" transform="matrix(1,0,0,1,988.85,342.5) translate(0 17.1)"/><use xlink:href="#e" transform="matrix(1,0,0,1,869,374.5) translate(0 17.1)"/><use xlink:href="#f" transform="matrix(1,0,0,1,988.85,374.5) translate(0 17.1)"/><use xlink:href="#g" transform="matrix(1,0,0,1,869,406.5) translate(0 17.1)"/><use xlink:href="#d" transform="matrix(1,0,0,1,988.85,406.5) translate(0 17.1)"/><use xlink:href="#h" transform="matrix(1,0,0,1,869,438.5) translate(0 17.1)"/><use xlink:href="#f" transform="matrix(1,0,0,1,988.85,438.5) translate(0 17.1)"/><use xlink:href="#i" transform="matrix(1,0,0,1,825,470.5) translate(5.524999999999999 17.1)"/><use xlink:href="#j" transform="matrix(1,0,0,1,869,470.5) translate(0 17.1)"/><use xlink:href="#d" transform="matrix(1,0,0,1,988.85,470.5) translate(0 17.1)"/><use xlink:href="#i" transform="matrix(1,0,0,1,825,502.5) translate(5.524999999999999 17.1)"/><use xlink:href="#k" transform="matrix(1,0,0,1,869,502.5) translate(0 17.1)"/><use xlink:href="#d" transform="matrix(1,0,0,1,988.85,502.5) translate(0 17.1)"/><path d="M600 86a6 6 0 0 1 6-6h448.35a6 6 0 0 1 6 6v188a6 6 0 0 1-6 6H606a6 6 0 0 1-6-6z" fill="#fff"/><path d="M600 86a6 6 0 0 1 6-6h448.35a6 6 0 0 1 6 6v188a6 6 0 0 1-6 6H606a6 6 0 0 1-6-6zM600 120h460.35M644 120v160M812.7 120v160" stroke="#3a414a" fill="none"/><use xlink:href="#l" transform="matrix(1,0,0,1,610,80) translate(188.05 23.6)"/><use xlink:href="#b" transform="matrix(1,0,0,1,605,122.5) translate(5 17.1)"/><use xlink:href="#c" transform="matrix(1,0,0,1,649,122.5) translate(0 17.1)"/><use xlink:href="#d" transform="matrix(1,0,0,1,817.7,122.5) translate(0 17.1)"/><use xlink:href="#m" transform="matrix(1,0,0,1,649,154.5) translate(0 17.1)"/><use xlink:href="#f" transform="matrix(1,0,0,1,817.7,154.5) translate(0 17.1)"/><use xlink:href="#n" transform="matrix(1,0,0,1,649,186.5) translate(0 17.1)"/><use xlink:href="#o" transform="matrix(1,0,0,1,817.7,186.5) translate(0 17.1)"/><use xlink:href="#p" transform="matrix(1,0,0,1,817.7,186.5) translate(87.85 17.1)"/><use xlink:href="#q" transform="matrix(1,0,0,1,817.7,186.5) translate(149.75 17.1)"/><use xlink:href="#r" transform="matrix(1,0,0,1,817.7,186.5) translate(188.65 17.1)"/><use xlink:href="#s" transform="matrix(1,0,0,1,649,218.5) translate(0 17.1)"/><use xlink:href="#o" transform="matrix(1,0,0,1,817.7,218.5) translate(0 17.1)"/><use xlink:href="#p" transform="matrix(1,0,0,1,817.7,218.5) translate(87.85 17.1)"/><use xlink:href="#q" transform="matrix(1,0,0,1,817.7,218.5) translate(149.75 17.1)"/><use xlink:href="#r" transform="matrix(1,0,0,1,817.7,218.5) translate(188.65 17.1)"/><use xlink:href="#i" transform="matrix(1,0,0,1,605,250.5) translate(5.524999999999999 17.1)"/><use xlink:href="#t" transform="matrix(1,0,0,1,649,250.5) translate(0 17.1)"/><use xlink:href="#d" transform="matrix(1,0,0,1,817.7,250.5) translate(0 17.1)"/><path d="M579.5 135.9h-14a6 6 0 0 0-6 6v336.37a6 6 0 0 0 6 6h234.6" stroke="#3a414a" fill="none"/><path d="M579.5 125.9v20M599.5 135.9h-20" stroke="#3a414a" fill="#fff"/><path d="M819.28 494.27l-20-10 20-10" stroke="#3a414a" fill="#fff" fill-opacity="0"/><path d="M819.28 484.27h-20" stroke="#3a414a" fill="#fff"/><path d="M1120 46a6 6 0 0 1 6-6h393.55a6 6 0 0 1 6 6v156a6 6 0 0 1-6 6H1126a6 6 0 0 1-6-6z" fill="#fff"/><path d="M1120 46a6 6 0 0 1 6-6h393.55a6 6 0 0 1 6 6v156a6 6 0 0 1-6 6H1126a6 6 0 0 1-6-6zM1120 80h405.55M1164 80v128M1277.9 80v128" stroke="#3a414a" fill="none"/><use xlink:href="#u" transform="matrix(1,0,0,1,1130,40) translate(123.64999999999999 23.6)"/><use xlink:href="#b" transform="matrix(1,0,0,1,1125,82.5) translate(5 17.1)"/><use xlink:href="#c" transform="matrix(1,0,0,1,1169,82.5) translate(0 17.1)"/><use xlink:href="#d" transform="matrix(1,0,0,1,1282.9,82.5) translate(0 17.1)"/><use xlink:href="#v" transform="matrix(1,0,0,1,1169,114.5) translate(0 17.1)"/><use xlink:href="#o" transform="matrix(1,0,0,1,1282.9,114.5) translate(0 17.1)"/><use xlink:href="#p" transform="matrix(1,0,0,1,1282.9,114.5) translate(87.85 17.1)"/><use xlink:href="#q" transform="matrix(1,0,0,1,1282.9,114.5) translate(149.75 17.1)"/><use xlink:href="#r" transform="matrix(1,0,0,1,1282.9,114.5) translate(188.65 17.1)"/><use xlink:href="#i" transform="matrix(1,0,0,1,1125,146.5) translate(5.524999999999999 17.1)"/><use xlink:href="#w" transform="matrix(1,0,0,1,1169,146.5) translate(0 17.1)"/><use xlink:href="#d" transform="matrix(1,0,0,1,1282.9,146.5) translate(0 17.1)"/><use xlink:href="#x" transform="matrix(1,0,0,1,1169,178.5) translate(0 17.1)"/><use xlink:href="#y" transform="matrix(1,0,0,1,1282.9,178.5) translate(0 17.1)"/><use xlink:href="#z" transform="matrix(1,0,0,1,1282.9,178.5) translate(79.9 17.1)"/><path d="M1099.5 95.93h-3.58a6 6 0 0 1-6-6V46a6 6 0 0 0-6-6H565.5a6 6 0 0 0-6 6v212.18a6 6 0 0 0 6 6h14.6" stroke="#3a414a" fill="none"/><path d="M1099.5 85.93v20M1119.5 95.93h-20" stroke="#3a414a" fill="#fff"/><path d="M599.28 274.18l-20-10 20-10" stroke="#3a414a" fill="#fff" fill-opacity="0"/><path d="M599.28 264.18h-20" stroke="#3a414a" fill="#fff"/><path d="M1140 226a6 6 0 0 1 6-6h288.5a6 6 0 0 1 6 6v124a6 6 0 0 1-6 6H1146a6 6 0 0 1-6-6z" fill="#fff"/><path d="M1140 226a6 6 0 0 1 6-6h288.5a6 6 0 0 1 6 6v124a6 6 0 0 1-6 6H1146a6 6 0 0 1-6-6zM1140 260h300.5M1182.95 260v96M1365.6 260v96" stroke="#3a414a" fill="none"/><use xlink:href="#A" transform="matrix(1,0,0,1,1150,220) translate(23.700000000000003 23.6)"/><use xlink:href="#b" transform="matrix(1,0,0,1,1145,262.5) translate(4.5 17.1)"/><use xlink:href="#c" transform="matrix(1,0,0,1,1187.95,262.5) translate(0 17.1)"/><use xlink:href="#d" transform="matrix(1,0,0,1,1370.6,262.5) translate(0 17.1)"/><use xlink:href="#i" transform="matrix(1,0,0,1,1145,294.5) translate(5.024999999999999 17.1)"/><use xlink:href="#B" transform="matrix(1,0,0,1,1187.95,294.5) translate(0 17.1)"/><use xlink:href="#d" transform="matrix(1,0,0,1,1370.6,294.5) translate(0 17.1)"/><use xlink:href="#i" transform="matrix(1,0,0,1,1145,326.5) translate(5.024999999999999 17.1)"/><use xlink:href="#C" transform="matrix(1,0,0,1,1187.95,326.5) translate(0 17.1)"/><use xlink:href="#d" transform="matrix(1,0,0,1,1370.6,326.5) translate(0 17.1)"/><path d="M1099.5 95.93h-14a6 6 0 0 0-6 6v200.14a6 6 0 0 0 6 6h34.6" stroke="#3a414a" fill="none"/><path d="M1099.5 85.93v20M1119.5 95.93h-20" stroke="#3a414a" fill="#fff"/><path d="M1139.28 318.07l-20-10 20-10" stroke="#3a414a" fill="#fff" fill-opacity="0"/><path d="M1139.28 308.07h-20" stroke="#3a414a" fill="#fff"/><path d="M1580 46a6 6 0 0 1 6-6h356.6a6 6 0 0 1 6 6v124a6 6 0 0 1-6 6H1586a6 6 0 0 1-6-6z" fill="#fff"/><path d="M1580 46a6 6 0 0 1 6-6h356.6a6 6 0 0 1 6 6v124a6 6 0 0 1-6 6H1586a6 6 0 0 1-6-6zM1580 80h368.6M1624 80v96M1748.9 80v96" stroke="#3a414a" fill="none"/><use xlink:href="#D" transform="matrix(1,0,0,1,1590,40) translate(143.025 23.6)"/><use xlink:href="#b" transform="matrix(1,0,0,1,1585,82.5) translate(5 17.1)"/><use xlink:href="#c" transform="matrix(1,0,0,1,1629,82.5) translate(0 17.1)"/><use xlink:href="#d" transform="matrix(1,0,0,1,1753.9,82.5) translate(0 17.1)"/><use xlink:href="#E" transform="matrix(1,0,0,1,1629,114.5) translate(0 17.1)"/><use xlink:href="#y" transform="matrix(1,0,0,1,1753.9,114.5) translate(0 17.1)"/><use xlink:href="#z" transform="matrix(1,0,0,1,1753.9,114.5) translate(79.9 17.1)"/><use xlink:href="#F" transform="matrix(1,0,0,1,1629,146.5) translate(0 17.1)"/><use xlink:href="#G" transform="matrix(1,0,0,1,1753.9,146.5) translate(0 17.1)"/><path d="M1559.5 95.97h-.72a6 6 0 0 0-6 6v52.12a6 6 0 0 1-6 6h-1.32" stroke="#3a414a" fill="none"/><path d="M1559.5 85.97v20M1579.5 95.97h-20" stroke="#3a414a" fill="#fff"/><path d="M1526.27 150.1l20 10-20 10" stroke="#3a414a" fill="#fff" fill-opacity="0"/><path d="M1526.27 160.1h20" stroke="#3a414a" fill="#fff"/><path d="M1160 386a6 6 0 0 1 6-6h285.7a6 6 0 0 1 6 6v124a6 6 0 0 1-6 6H1166a6 6 0 0 1-6-6z" fill="#fff"/><path d="M1160 386a6 6 0 0 1 6-6h285.7a6 6 0 0 1 6 6v124a6 6 0 0 1-6 6H1166a6 6 0 0 1-6-6zM1160 420h297.7M1204 420v96M1258 420v96" stroke="#3a414a" fill="none"/><use xlink:href="#H" transform="matrix(1,0,0,1,1170,380) translate(96.55 23.6)"/><use xlink:href="#b" transform="matrix(1,0,0,1,1165,422.5) translate(5 17.1)"/><use xlink:href="#c" transform="matrix(1,0,0,1,1209,422.5) translate(0 17.1)"/><use xlink:href="#d" transform="matrix(1,0,0,1,1263,422.5) translate(0 17.1)"/><use xlink:href="#I" transform="matrix(1,0,0,1,1209,454.5) translate(0 17.1)"/><use xlink:href="#y" transform="matrix(1,0,0,1,1263,454.5) translate(0 17.1)"/><use xlink:href="#z" transform="matrix(1,0,0,1,1263,454.5) translate(79.9 17.1)"/><use xlink:href="#E" transform="matrix(1,0,0,1,1209,486.5) translate(0 17.1)"/><g><use xlink:href="#y" transform="matrix(1,0,0,1,1263,486.5) translate(0 17.1)"/><use xlink:href="#z" transform="matrix(1,0,0,1,1263,486.5) translate(79.9 17.1)"/></g><path d="M1139.5 435.96h-19.65a6 6 0 0 0-6 6v68.44a6 6 0 0 1-6 6h-20.24" stroke="#3a414a" fill="none"/><path d="M1139.5 425.96v20M1159.5 435.96h-20" stroke="#3a414a" fill="#fff"/><path d="M1068.42 506.4l20 10-20 10" stroke="#3a414a" fill="#fff" fill-opacity="0"/><path d="M1068.42 516.4h20" stroke="#3a414a" fill="#fff"/><path d="M1139.5 435.96h-14a6 6 0 0 1-6-6V374a6 6 0 0 1 6-6H1475a6 6 0 0 0 6-6v-15.83a6 6 0 0 0-6-6h-14.6" stroke="#3a414a" fill="none"/><path d="M1139.5 425.96v20M1159.5 435.96h-20" stroke="#3a414a" fill="#fff"/><path d="M1441.22 330.17l20 10-20 10" stroke="#3a414a" fill="#fff" fill-opacity="0"/><path d="M1441.22 340.17h20" stroke="#3a414a" fill="#fff"/><defs><path d="M24-231v-30h32v30H24zM24 0v-190h32V0H24" id="J"/><path d="M117-194c89-4 53 116 60 194h-32v-121c0-31-8-49-39-48C34-167 62-67 57 0H25l-1-190h30c1 10-1 24 2 32 11-22 29-35 61-36" id="K"/><path d="M108 0H70L1-190h34L89-25l56-165h34" id="L"/><path d="M100-194c62-1 85 37 85 99 1 63-27 99-86 99S16-35 15-95c0-66 28-99 85-99zM99-20c44 1 53-31 53-75 0-43-8-75-51-75s-53 32-53 75 10 74 51 75" id="M"/><path d="M96-169c-40 0-48 33-48 73s9 75 48 75c24 0 41-14 43-38l32 2c-6 37-31 61-74 61-59 0-76-41-82-99-10-93 101-131 147-64 4 7 5 14 7 22l-32 3c-4-21-16-35-41-35" id="N"/><path d="M100-194c63 0 86 42 84 106H49c0 40 14 67 53 68 26 1 43-12 49-29l28 8c-11 28-37 45-77 45C44 4 14-33 15-96c1-61 26-98 85-98zm52 81c6-60-76-77-97-28-3 7-6 17-6 28h103" id="O"/><path d="M-5 72V49h209v23H-5" id="P"/><path d="M59-47c-2 24 18 29 38 22v24C64 9 27 4 27-40v-127H5v-23h24l9-43h21v43h35v23H59v120" id="Q"/><path d="M210-169c-67 3-38 105-44 169h-31v-121c0-29-5-50-35-48C34-165 62-65 56 0H25l-1-190h30c1 10-1 24 2 32 10-44 99-50 107 0 11-21 27-35 58-36 85-2 47 119 55 194h-31v-121c0-29-5-49-35-48" id="R"/><path d="M135-143c-3-34-86-38-87 0 15 53 115 12 119 90S17 21 10-45l28-5c4 36 97 45 98 0-10-56-113-15-118-90-4-57 82-63 122-42 12 7 21 19 24 35" id="S"/><g id="a"><use transform="matrix(0.05,0,0,0.05,0,0)" xlink:href="#J"/><use transform="matrix(0.05,0,0,0.05,3.95,0)" xlink:href="#K"/><use transform="matrix(0.05,0,0,0.05,13.949999999999998,0)" xlink:href="#L"/><use transform="matrix(0.05,0,0,0.05,22.95,0)" xlink:href="#M"/><use transform="matrix(0.05,0,0,0.05,32.95,0)" xlink:href="#J"/><use transform="matrix(0.05,0,0,0.05,36.900000000000006,0)" xlink:href="#N"/><use transform="matrix(0.05,0,0,0.05,45.900000000000006,0)" xlink:href="#O"/><use transform="matrix(0.05,0,0,0.05,55.900000000000006,0)" xlink:href="#P"/><use transform="matrix(0.05,0,0,0.05,65.9,0)" xlink:href="#J"/><use transform="matrix(0.05,0,0,0.05,69.85000000000001,0)" xlink:href="#Q"/><use transform="matrix(0.05,0,0,0.05,74.85000000000001,0)" xlink:href="#O"/><use transform="matrix(0.05,0,0,0.05,84.85000000000001,0)" xlink:href="#R"/><use transform="matrix(0.05,0,0,0.05,99.80000000000001,0)" xlink:href="#S"/></g><path d="M30-248c87 1 191-15 191 75 0 78-77 80-158 76V0H30v-248zm33 125c57 0 124 11 124-50 0-59-68-47-124-48v98" id="T"/><path d="M194 0L95-120 63-95V0H30v-248h33v124l119-124h40L117-140 236 0h-42" id="U"/><g id="b"><use transform="matrix(0.05,0,0,0.05,0,0)" xlink:href="#T"/><use transform="matrix(0.05,0,0,0.05,12,0)" xlink:href="#U"/></g><path d="M85-194c31 0 48 13 60 33l-1-100h32l1 261h-30c-2-10 0-23-3-31C134-8 116 4 85 4 32 4 16-35 15-94c0-66 23-100 70-100zm9 24c-40 0-46 34-46 75 0 40 6 74 45 74 42 0 51-32 51-76 0-42-9-74-50-73" id="V"/><g id="c"><use transform="matrix(0.05,0,0,0.05,0,0)" xlink:href="#J"/><use transform="matrix(0.05,0,0,0.05,3.95,0)" xlink:href="#V"/></g><path d="M177-190C167-65 218 103 67 71c-23-6-38-20-44-43l32-5c15 47 100 32 89-28v-30C133-14 115 1 83 1 29 1 15-40 15-95c0-56 16-97 71-98 29-1 48 16 59 35 1-10 0-23 2-32h30zM94-22c36 0 50-32 50-73 0-42-14-75-50-75-39 0-46 34-46 75s6 73 46 73" id="W"/><path d="M114-163C36-179 61-72 57 0H25l-1-190h30c1 12-1 29 2 39 6-27 23-49 58-41v29" id="X"/><g id="d"><use transform="matrix(0.05,0,0,0.05,0,0)" xlink:href="#J"/><use transform="matrix(0.05,0,0,0.05,3.95,0)" xlink:href="#K"/><use transform="matrix(0.05,0,0,0.05,13.949999999999998,0)" xlink:href="#Q"/><use transform="matrix(0.05,0,0,0.05,18.95,0)" xlink:href="#O"/><use transform="matrix(0.05,0,0,0.05,28.950000000000003,0)" xlink:href="#W"/><use transform="matrix(0.05,0,0,0.05,38.95,0)" xlink:href="#O"/><use transform="matrix(0.05,0,0,0.05,48.95,0)" xlink:href="#X"/></g><path d="M84 4C-5 8 30-112 23-190h32v120c0 31 7 50 39 49 72-2 45-101 50-169h31l1 190h-30c-1-10 1-25-2-33-11 22-28 36-60 37" id="Y"/><path d="M115-194c55 1 70 41 70 98S169 2 115 4C84 4 66-9 55-30l1 105H24l-1-265h31l2 30c10-21 28-34 59-34zm-8 174c40 0 45-34 45-75s-6-73-45-74c-42 0-51 32-51 76 0 43 10 73 51 73" id="Z"/><g id="e"><use transform="matrix(0.05,0,0,0.05,0,0)" xlink:href="#Y"/><use transform="matrix(0.05,0,0,0.05,10,0)" xlink:href="#K"/><use transform="matrix(0.05,0,0,0.05,20,0)" xlink:href="#J"/><use transform="matrix(0.05,0,0,0.05,23.95,0)" xlink:href="#Q"/><use transform="matrix(0.05,0,0,0.05,28.950000000000003,0)" xlink:href="#P"/><use transform="matrix(0.05,0,0,0.05,38.95,0)" xlink:href="#Z"/><use transform="matrix(0.05,0,0,0.05,48.95,0)" xlink:href="#X"/><use transform="matrix(0.05,0,0,0.05,54.900000000000006,0)" xlink:href="#J"/><use transform="matrix(0.05,0,0,0.05,58.85,0)" xlink:href="#N"/><use transform="matrix(0.05,0,0,0.05,67.85000000000001,0)" xlink:href="#O"/></g><g id="f"><use transform="matrix(0.05,0,0,0.05,0,0)" xlink:href="#K"/><use transform="matrix(0.05,0,0,0.05,10,0)" xlink:href="#Y"/><use transform="matrix(0.05,0,0,0.05,20,0)" xlink:href="#R"/><use transform="matrix(0.05,0,0,0.05,34.95,0)" xlink:href="#O"/><use transform="matrix(0.05,0,0,0.05,44.95,0)" xlink:href="#X"/><use transform="matrix(0.05,0,0,0.05,50.900000000000006,0)" xlink:href="#J"/><use transform="matrix(0.05,0,0,0.05,54.85,0)" xlink:href="#N"/></g><path d="M145-31C134-9 116 4 85 4 32 4 16-35 15-94c0-59 17-99 70-100 32-1 48 14 60 33 0-11-1-24 2-32h30l-1 268h-32zM93-21c41 0 51-33 51-76s-8-73-50-73c-40 0-46 35-46 75s5 74 45 74" id="aa"/><path d="M141-36C126-15 110 5 73 4 37 3 15-17 15-53c-1-64 63-63 125-63 3-35-9-54-41-54-24 1-41 7-42 31l-33-3c5-37 33-52 76-52 45 0 72 20 72 64v82c-1 20 7 32 28 27v20c-31 9-61-2-59-35zM48-53c0 20 12 33 32 33 41-3 63-29 60-74-43 2-92-5-92 41" id="ab"/><path d="M179-190L93 31C79 59 56 82 12 73V49c39 6 53-20 64-50L1-190h34L92-34l54-156h33" id="ac"/><g id="g"><use transform="matrix(0.05,0,0,0.05,0,0)" xlink:href="#aa"/><use transform="matrix(0.05,0,0,0.05,10,0)" xlink:href="#Y"/><use transform="matrix(0.05,0,0,0.05,20,0)" xlink:href="#ab"/><use transform="matrix(0.05,0,0,0.05,30,0)" xlink:href="#K"/><use transform="matrix(0.05,0,0,0.05,40,0)" xlink:href="#Q"/><use transform="matrix(0.05,0,0,0.05,45,0)" xlink:href="#J"/><use transform="matrix(0.05,0,0,0.05,48.95,0)" xlink:href="#Q"/><use transform="matrix(0.05,0,0,0.05,53.95,0)" xlink:href="#ac"/></g><path d="M24 0v-261h32V0H24" id="ad"/><g id="h"><use transform="matrix(0.05,0,0,0.05,0,0)" xlink:href="#Q"/><use transform="matrix(0.05,0,0,0.05,5,0)" xlink:href="#M"/><use transform="matrix(0.05,0,0,0.05,15,0)" xlink:href="#Q"/><use transform="matrix(0.05,0,0,0.05,20,0)" xlink:href="#ab"/><use transform="matrix(0.05,0,0,0.05,30,0)" xlink:href="#ad"/><use transform="matrix(0.05,0,0,0.05,33.95,0)" xlink:href="#P"/><use transform="matrix(0.05,0,0,0.05,43.95,0)" xlink:href="#Z"/><use transform="matrix(0.05,0,0,0.05,53.95,0)" xlink:href="#X"/><use transform="matrix(0.05,0,0,0.05,59.900000000000006,0)" xlink:href="#J"/><use transform="matrix(0.05,0,0,0.05,63.85,0)" xlink:href="#N"/><use transform="matrix(0.05,0,0,0.05,72.85000000000001,0)" xlink:href="#O"/></g><path d="M63-220v92h138v28H63V0H30v-248h175v28H63" id="ae"/><g id="i"><use transform="matrix(0.05,0,0,0.05,0,0)" xlink:href="#ae"/><use transform="matrix(0.05,0,0,0.05,10.950000000000001,0)" xlink:href="#U"/></g><g id="j"><use transform="matrix(0.05,0,0,0.05,0,0)" xlink:href="#J"/><use transform="matrix(0.05,0,0,0.05,3.95,0)" xlink:href="#K"/><use transform="matrix(0.05,0,0,0.05,13.949999999999998,0)" xlink:href="#L"/><use transform="matrix(0.05,0,0,0.05,22.95,0)" xlink:href="#M"/><use transform="matrix(0.05,0,0,0.05,32.95,0)" xlink:href="#J"/><use transform="matrix(0.05,0,0,0.05,36.900000000000006,0)" xlink:href="#N"/><use transform="matrix(0.05,0,0,0.05,45.900000000000006,0)" xlink:href="#O"/><use transform="matrix(0.05,0,0,0.05,55.900000000000006,0)" xlink:href="#P"/><use transform="matrix(0.05,0,0,0.05,65.9,0)" xlink:href="#J"/><use transform="matrix(0.05,0,0,0.05,69.85000000000001,0)" xlink:href="#V"/></g><g id="k"><use transform="matrix(0.05,0,0,0.05,0,0)" xlink:href="#Q"/><use transform="matrix(0.05,0,0,0.05,5,0)" xlink:href="#X"/><use transform="matrix(0.05,0,0,0.05,10.95,0)" xlink:href="#O"/><use transform="matrix(0.05,0,0,0.05,20.95,0)" xlink:href="#ab"/><use transform="matrix(0.05,0,0,0.05,30.950000000000003,0)" xlink:href="#Q"/><use transform="matrix(0.05,0,0,0.05,35.95,0)" xlink:href="#R"/><use transform="matrix(0.05,0,0,0.05,50.900000000000006,0)" xlink:href="#O"/><use transform="matrix(0.05,0,0,0.05,60.900000000000006,0)" xlink:href="#K"/><use transform="matrix(0.05,0,0,0.05,70.9,0)" xlink:href="#Q"/><use transform="matrix(0.05,0,0,0.05,75.9,0)" xlink:href="#P"/><use transform="matrix(0.05,0,0,0.05,85.9,0)" xlink:href="#J"/><use transform="matrix(0.05,0,0,0.05,89.85000000000001,0)" xlink:href="#V"/></g><g id="l"><use transform="matrix(0.05,0,0,0.05,0,0)" xlink:href="#J"/><use transform="matrix(0.05,0,0,0.05,3.95,0)" xlink:href="#K"/><use transform="matrix(0.05,0,0,0.05,13.949999999999998,0)" xlink:href="#L"/><use transform="matrix(0.05,0,0,0.05,22.95,0)" xlink:href="#M"/><use transform="matrix(0.05,0,0,0.05,32.95,0)" xlink:href="#J"/><use transform="matrix(0.05,0,0,0.05,36.900000000000006,0)" xlink:href="#N"/><use transform="matrix(0.05,0,0,0.05,45.900000000000006,0)" xlink:href="#O"/><use transform="matrix(0.05,0,0,0.05,55.900000000000006,0)" xlink:href="#S"/></g><g id="m"><use transform="matrix(0.05,0,0,0.05,0,0)" xlink:href="#Q"/><use transform="matrix(0.05,0,0,0.05,5,0)" xlink:href="#M"/><use transform="matrix(0.05,0,0,0.05,15,0)" xlink:href="#Q"/><use transform="matrix(0.05,0,0,0.05,20,0)" xlink:href="#ab"/><use transform="matrix(0.05,0,0,0.05,30,0)" xlink:href="#ad"/><use transform="matrix(0.05,0,0,0.05,33.95,0)" xlink:href="#P"/><use transform="matrix(0.05,0,0,0.05,43.95,0)" xlink:href="#ab"/><use transform="matrix(0.05,0,0,0.05,53.95,0)" xlink:href="#R"/><use transform="matrix(0.05,0,0,0.05,68.9,0)" xlink:href="#M"/><use transform="matrix(0.05,0,0,0.05,78.9,0)" xlink:href="#Y"/><use transform="matrix(0.05,0,0,0.05,88.9,0)" xlink:href="#K"/><use transform="matrix(0.05,0,0,0.05,98.9,0)" xlink:href="#Q"/></g><g id="n"><use transform="matrix(0.05,0,0,0.05,0,0)" xlink:href="#W"/><use transform="matrix(0.05,0,0,0.05,10,0)" xlink:href="#O"/><use transform="matrix(0.05,0,0,0.05,20,0)" xlink:href="#K"/><use transform="matrix(0.05,0,0,0.05,30,0)" xlink:href="#O"/><use transform="matrix(0.05,0,0,0.05,40,0)" xlink:href="#X"/><use transform="matrix(0.05,0,0,0.05,45.95,0)" xlink:href="#ab"/><use transform="matrix(0.05,0,0,0.05,55.95,0)" xlink:href="#Q"/><use transform="matrix(0.05,0,0,0.05,60.95,0)" xlink:href="#O"/><use transform="matrix(0.05,0,0,0.05,70.95,0)" xlink:href="#V"/><use transform="matrix(0.05,0,0,0.05,80.95,0)" xlink:href="#P"/><use transform="matrix(0.05,0,0,0.05,90.95,0)" xlink:href="#ab"/><use transform="matrix(0.05,0,0,0.05,100.95,0)" xlink:href="#Q"/></g><g id="o"><use transform="matrix(0.05,0,0,0.05,0,0)" xlink:href="#Q"/><use transform="matrix(0.05,0,0,0.05,5,0)" xlink:href="#J"/><use transform="matrix(0.05,0,0,0.05,8.95,0)" xlink:href="#R"/><use transform="matrix(0.05,0,0,0.05,23.9,0)" xlink:href="#O"/><use transform="matrix(0.05,0,0,0.05,33.9,0)" xlink:href="#S"/><use transform="matrix(0.05,0,0,0.05,42.9,0)" xlink:href="#Q"/><use transform="matrix(0.05,0,0,0.05,47.9,0)" xlink:href="#ab"/><use transform="matrix(0.05,0,0,0.05,57.900000000000006,0)" xlink:href="#R"/><use transform="matrix(0.05,0,0,0.05,72.85,0)" xlink:href="#Z"/></g><path d="M206 0h-36l-40-164L89 0H53L-1-190h32L70-26l43-164h34l41 164 42-164h31" id="af"/><path d="M106-169C34-169 62-67 57 0H25v-261h32l-1 103c12-21 28-36 61-36 89 0 53 116 60 194h-32v-121c2-32-8-49-39-48" id="ag"/><g id="p"><use transform="matrix(0.05,0,0,0.05,0,0)" xlink:href="#af"/><use transform="matrix(0.05,0,0,0.05,12.950000000000001,0)" xlink:href="#J"/><use transform="matrix(0.05,0,0,0.05,16.900000000000002,0)" xlink:href="#Q"/><use transform="matrix(0.05,0,0,0.05,21.900000000000002,0)" xlink:href="#ag"/><use transform="matrix(0.05,0,0,0.05,31.900000000000002,0)" xlink:href="#M"/><use transform="matrix(0.05,0,0,0.05,41.900000000000006,0)" xlink:href="#Y"/><use transform="matrix(0.05,0,0,0.05,51.900000000000006,0)" xlink:href="#Q"/></g><g id="q"><use transform="matrix(0.05,0,0,0.05,0,0)" xlink:href="#Q"/><use transform="matrix(0.05,0,0,0.05,5,0)" xlink:href="#J"/><use transform="matrix(0.05,0,0,0.05,8.95,0)" xlink:href="#R"/><use transform="matrix(0.05,0,0,0.05,23.9,0)" xlink:href="#O"/></g><path d="M9 0v-24l116-142H16v-24h144v24L44-24h123V0H9" id="ah"/><g id="r"><use transform="matrix(0.05,0,0,0.05,0,0)" xlink:href="#ah"/><use transform="matrix(0.05,0,0,0.05,9,0)" xlink:href="#M"/><use transform="matrix(0.05,0,0,0.05,19,0)" xlink:href="#K"/><use transform="matrix(0.05,0,0,0.05,29,0)" xlink:href="#O"/></g><g id="s"><use transform="matrix(0.05,0,0,0.05,0,0)" xlink:href="#Z"/><use transform="matrix(0.05,0,0,0.05,10,0)" xlink:href="#ab"/><use transform="matrix(0.05,0,0,0.05,20,0)" xlink:href="#ac"/><use transform="matrix(0.05,0,0,0.05,29,0)" xlink:href="#O"/><use transform="matrix(0.05,0,0,0.05,39,0)" xlink:href="#V"/><use transform="matrix(0.05,0,0,0.05,49,0)" xlink:href="#P"/><use transform="matrix(0.05,0,0,0.05,59,0)" xlink:href="#ab"/><use transform="matrix(0.05,0,0,0.05,69,0)" xlink:href="#Q"/></g><g id="t"><use transform="matrix(0.05,0,0,0.05,0,0)" xlink:href="#R"/><use transform="matrix(0.05,0,0,0.05,14.950000000000001,0)" xlink:href="#O"/><use transform="matrix(0.05,0,0,0.05,24.950000000000003,0)" xlink:href="#V"/><use transform="matrix(0.05,0,0,0.05,34.95,0)" xlink:href="#J"/><use transform="matrix(0.05,0,0,0.05,38.900000000000006,0)" xlink:href="#N"/><use transform="matrix(0.05,0,0,0.05,47.900000000000006,0)" xlink:href="#ab"/><use transform="matrix(0.05,0,0,0.05,57.900000000000006,0)" xlink:href="#ad"/><use transform="matrix(0.05,0,0,0.05,61.85,0)" xlink:href="#P"/><use transform="matrix(0.05,0,0,0.05,71.85000000000001,0)" xlink:href="#ag"/><use transform="matrix(0.05,0,0,0.05,81.85000000000001,0)" xlink:href="#J"/><use transform="matrix(0.05,0,0,0.05,85.80000000000001,0)" xlink:href="#S"/><use transform="matrix(0.05,0,0,0.05,94.80000000000001,0)" xlink:href="#Q"/><use transform="matrix(0.05,0,0,0.05,99.80000000000001,0)" xlink:href="#M"/><use transform="matrix(0.05,0,0,0.05,109.80000000000001,0)" xlink:href="#X"/><use transform="matrix(0.05,0,0,0.05,115.75,0)" xlink:href="#ac"/><use transform="matrix(0.05,0,0,0.05,124.75,0)" xlink:href="#P"/><use transform="matrix(0.05,0,0,0.05,134.75,0)" xlink:href="#J"/><use transform="matrix(0.05,0,0,0.05,138.7,0)" xlink:href="#V"/></g><g id="u"><use transform="matrix(0.05,0,0,0.05,0,0)" xlink:href="#R"/><use transform="matrix(0.05,0,0,0.05,14.950000000000001,0)" xlink:href="#O"/><use transform="matrix(0.05,0,0,0.05,24.950000000000003,0)" xlink:href="#V"/><use transform="matrix(0.05,0,0,0.05,34.95,0)" xlink:href="#J"/><use transform="matrix(0.05,0,0,0.05,38.900000000000006,0)" xlink:href="#N"/><use transform="matrix(0.05,0,0,0.05,47.900000000000006,0)" xlink:href="#ab"/><use transform="matrix(0.05,0,0,0.05,57.900000000000006,0)" xlink:href="#ad"/><use transform="matrix(0.05,0,0,0.05,61.85,0)" xlink:href="#P"/><use transform="matrix(0.05,0,0,0.05,71.85000000000001,0)" xlink:href="#ag"/><use transform="matrix(0.05,0,0,0.05,81.85000000000001,0)" xlink:href="#J"/><use transform="matrix(0.05,0,0,0.05,85.80000000000001,0)" xlink:href="#S"/><use transform="matrix(0.05,0,0,0.05,94.80000000000001,0)" xlink:href="#Q"/><use transform="matrix(0.05,0,0,0.05,99.80000000000001,0)" xlink:href="#M"/><use transform="matrix(0.05,0,0,0.05,109.80000000000001,0)" xlink:href="#X"/><use transform="matrix(0.05,0,0,0.05,115.75,0)" xlink:href="#J"/><use transform="matrix(0.05,0,0,0.05,119.7,0)" xlink:href="#O"/><use transform="matrix(0.05,0,0,0.05,129.70000000000002,0)" xlink:href="#S"/></g><g id="v"><use transform="matrix(0.05,0,0,0.05,0,0)" xlink:href="#ab"/><use transform="matrix(0.05,0,0,0.05,10,0)" xlink:href="#V"/><use transform="matrix(0.05,0,0,0.05,20,0)" xlink:href="#R"/><use transform="matrix(0.05,0,0,0.05,34.95,0)" xlink:href="#J"/><use transform="matrix(0.05,0,0,0.05,38.900000000000006,0)" xlink:href="#Q"/><use transform="matrix(0.05,0,0,0.05,43.900000000000006,0)" xlink:href="#Q"/><use transform="matrix(0.05,0,0,0.05,48.900000000000006,0)" xlink:href="#O"/><use transform="matrix(0.05,0,0,0.05,58.900000000000006,0)" xlink:href="#V"/><use transform="matrix(0.05,0,0,0.05,68.9,0)" xlink:href="#P"/><use transform="matrix(0.05,0,0,0.05,78.9,0)" xlink:href="#ab"/><use transform="matrix(0.05,0,0,0.05,88.9,0)" xlink:href="#Q"/></g><g id="w"><use transform="matrix(0.05,0,0,0.05,0,0)" xlink:href="#Z"/><use transform="matrix(0.05,0,0,0.05,10,0)" xlink:href="#ab"/><use transform="matrix(0.05,0,0,0.05,20,0)" xlink:href="#Q"/><use transform="matrix(0.05,0,0,0.05,25,0)" xlink:href="#J"/><use transform="matrix(0.05,0,0,0.05,28.950000000000003,0)" xlink:href="#O"/><use transform="matrix(0.05,0,0,0.05,38.95,0)" xlink:href="#K"/><use transform="matrix(0.05,0,0,0.05,48.95,0)" xlink:href="#Q"/><use transform="matrix(0.05,0,0,0.05,53.95,0)" xlink:href="#P"/><use transform="matrix(0.05,0,0,0.05,63.95,0)" xlink:href="#J"/><use transform="matrix(0.05,0,0,0.05,67.9,0)" xlink:href="#V"/></g><g id="x"><use transform="matrix(0.05,0,0,0.05,0,0)" xlink:href="#S"/><use transform="matrix(0.05,0,0,0.05,9,0)" xlink:href="#Q"/><use transform="matrix(0.05,0,0,0.05,14,0)" xlink:href="#ab"/><use transform="matrix(0.05,0,0,0.05,24,0)" xlink:href="#Q"/><use transform="matrix(0.05,0,0,0.05,29,0)" xlink:href="#Y"/><use transform="matrix(0.05,0,0,0.05,39,0)" xlink:href="#S"/></g><g id="y"><use transform="matrix(0.05,0,0,0.05,0,0)" xlink:href="#N"/><use transform="matrix(0.05,0,0,0.05,9,0)" xlink:href="#ag"/><use transform="matrix(0.05,0,0,0.05,19,0)" xlink:href="#ab"/><use transform="matrix(0.05,0,0,0.05,29,0)" xlink:href="#X"/><use transform="matrix(0.05,0,0,0.05,34.95,0)" xlink:href="#ab"/><use transform="matrix(0.05,0,0,0.05,44.95,0)" xlink:href="#N"/><use transform="matrix(0.05,0,0,0.05,53.95,0)" xlink:href="#Q"/><use transform="matrix(0.05,0,0,0.05,58.95,0)" xlink:href="#O"/><use transform="matrix(0.05,0,0,0.05,68.95,0)" xlink:href="#X"/></g><path d="M87 75C49 33 22-17 22-94c0-76 28-126 65-167h31c-38 41-64 92-64 168S80 34 118 75H87" id="ai"/><path d="M101-251c82-7 93 87 43 132L82-64C71-53 59-42 53-27h129V0H18c2-99 128-94 128-182 0-28-16-43-45-43s-46 15-49 41l-32-3c6-41 34-60 81-64" id="aj"/><path d="M54-142c48-35 137-8 131 61C196 18 31 33 14-55l32-4c7 23 22 37 52 37 35-1 51-22 54-58 4-55-73-65-99-34H22l8-134h141v27H59" id="ak"/><path d="M33-261c38 41 65 92 65 168S71 34 33 75H2C39 34 66-17 66-93S39-220 2-261h31" id="al"/><g id="z"><use transform="matrix(0.05,0,0,0.05,0,0)" xlink:href="#L"/><use transform="matrix(0.05,0,0,0.05,9,0)" xlink:href="#ab"/><use transform="matrix(0.05,0,0,0.05,19,0)" xlink:href="#X"/><use transform="matrix(0.05,0,0,0.05,24.95,0)" xlink:href="#ac"/><use transform="matrix(0.05,0,0,0.05,33.95,0)" xlink:href="#J"/><use transform="matrix(0.05,0,0,0.05,37.900000000000006,0)" xlink:href="#K"/><use transform="matrix(0.05,0,0,0.05,47.900000000000006,0)" xlink:href="#W"/><use transform="matrix(0.05,0,0,0.05,57.900000000000006,0)" xlink:href="#ai"/><use transform="matrix(0.05,0,0,0.05,63.85,0)" xlink:href="#aj"/><use transform="matrix(0.05,0,0,0.05,73.85000000000001,0)" xlink:href="#ak"/><use transform="matrix(0.05,0,0,0.05,83.85000000000001,0)" xlink:href="#ak"/><use transform="matrix(0.05,0,0,0.05,93.85000000000001,0)" xlink:href="#al"/></g><g id="A"><use transform="matrix(0.05,0,0,0.05,0,0)" xlink:href="#R"/><use transform="matrix(0.05,0,0,0.05,14.950000000000001,0)" xlink:href="#O"/><use transform="matrix(0.05,0,0,0.05,24.950000000000003,0)" xlink:href="#V"/><use transform="matrix(0.05,0,0,0.05,34.95,0)" xlink:href="#J"/><use transform="matrix(0.05,0,0,0.05,38.900000000000006,0)" xlink:href="#N"/><use transform="matrix(0.05,0,0,0.05,47.900000000000006,0)" xlink:href="#ab"/><use transform="matrix(0.05,0,0,0.05,57.900000000000006,0)" xlink:href="#ad"/><use transform="matrix(0.05,0,0,0.05,61.85,0)" xlink:href="#P"/><use transform="matrix(0.05,0,0,0.05,71.85000000000001,0)" xlink:href="#ag"/><use transform="matrix(0.05,0,0,0.05,81.85000000000001,0)" xlink:href="#J"/><use transform="matrix(0.05,0,0,0.05,85.80000000000001,0)" xlink:href="#S"/><use transform="matrix(0.05,0,0,0.05,94.80000000000001,0)" xlink:href="#Q"/><use transform="matrix(0.05,0,0,0.05,99.80000000000001,0)" xlink:href="#M"/><use transform="matrix(0.05,0,0,0.05,109.80000000000001,0)" xlink:href="#X"/><use transform="matrix(0.05,0,0,0.05,115.75,0)" xlink:href="#J"/><use transform="matrix(0.05,0,0,0.05,119.7,0)" xlink:href="#O"/><use transform="matrix(0.05,0,0,0.05,129.70000000000002,0)" xlink:href="#S"/><use transform="matrix(0.05,0,0,0.05,138.70000000000002,0)" xlink:href="#P"/><use transform="matrix(0.05,0,0,0.05,148.70000000000002,0)" xlink:href="#Q"/><use transform="matrix(0.05,0,0,0.05,153.70000000000002,0)" xlink:href="#X"/><use transform="matrix(0.05,0,0,0.05,159.65,0)" xlink:href="#O"/><use transform="matrix(0.05,0,0,0.05,169.65,0)" xlink:href="#ab"/><use transform="matrix(0.05,0,0,0.05,179.65,0)" xlink:href="#Q"/><use transform="matrix(0.05,0,0,0.05,184.65,0)" xlink:href="#R"/><use transform="matrix(0.05,0,0,0.05,199.6,0)" xlink:href="#O"/><use transform="matrix(0.05,0,0,0.05,209.60000000000002,0)" xlink:href="#K"/><use transform="matrix(0.05,0,0,0.05,219.60000000000002,0)" xlink:href="#Q"/><use transform="matrix(0.05,0,0,0.05,224.60000000000002,0)" xlink:href="#S"/></g><g id="B"><use transform="matrix(0.05,0,0,0.05,0,0)" xlink:href="#R"/><use transform="matrix(0.05,0,0,0.05,14.950000000000001,0)" xlink:href="#O"/><use transform="matrix(0.05,0,0,0.05,24.950000000000003,0)" xlink:href="#V"/><use transform="matrix(0.05,0,0,0.05,34.95,0)" xlink:href="#J"/><use transform="matrix(0.05,0,0,0.05,38.900000000000006,0)" xlink:href="#N"/><use transform="matrix(0.05,0,0,0.05,47.900000000000006,0)" xlink:href="#ab"/><use transform="matrix(0.05,0,0,0.05,57.900000000000006,0)" xlink:href="#ad"/><use transform="matrix(0.05,0,0,0.05,61.85,0)" xlink:href="#P"/><use transform="matrix(0.05,0,0,0.05,71.85000000000001,0)" xlink:href="#ag"/><use transform="matrix(0.05,0,0,0.05,81.85000000000001,0)" xlink:href="#J"/><use transform="matrix(0.05,0,0,0.05,85.80000000000001,0)" xlink:href="#S"/><use transform="matrix(0.05,0,0,0.05,94.80000000000001,0)" xlink:href="#Q"/><use transform="matrix(0.05,0,0,0.05,99.80000000000001,0)" xlink:href="#M"/><use transform="matrix(0.05,0,0,0.05,109.80000000000001,0)" xlink:href="#X"/><use transform="matrix(0.05,0,0,0.05,115.75,0)" xlink:href="#J"/><use transform="matrix(0.05,0,0,0.05,119.7,0)" xlink:href="#O"/><use transform="matrix(0.05,0,0,0.05,129.70000000000002,0)" xlink:href="#S"/><use transform="matrix(0.05,0,0,0.05,138.70000000000002,0)" xlink:href="#P"/><use transform="matrix(0.05,0,0,0.05,148.70000000000002,0)" xlink:href="#J"/><use transform="matrix(0.05,0,0,0.05,152.65,0)" xlink:href="#V"/></g><g id="C"><use transform="matrix(0.05,0,0,0.05,0,0)" xlink:href="#Q"/><use transform="matrix(0.05,0,0,0.05,5,0)" xlink:href="#X"/><use transform="matrix(0.05,0,0,0.05,10.95,0)" xlink:href="#O"/><use transform="matrix(0.05,0,0,0.05,20.95,0)" xlink:href="#ab"/><use transform="matrix(0.05,0,0,0.05,30.950000000000003,0)" xlink:href="#Q"/><use transform="matrix(0.05,0,0,0.05,35.95,0)" xlink:href="#R"/><use transform="matrix(0.05,0,0,0.05,50.900000000000006,0)" xlink:href="#O"/><use transform="matrix(0.05,0,0,0.05,60.900000000000006,0)" xlink:href="#K"/><use transform="matrix(0.05,0,0,0.05,70.9,0)" xlink:href="#Q"/><use transform="matrix(0.05,0,0,0.05,75.9,0)" xlink:href="#S"/><use transform="matrix(0.05,0,0,0.05,84.9,0)" xlink:href="#P"/><use transform="matrix(0.05,0,0,0.05,94.9,0)" xlink:href="#J"/><use transform="matrix(0.05,0,0,0.05,98.85000000000001,0)" xlink:href="#V"/></g><g id="D"><use transform="matrix(0.05,0,0,0.05,0,0)" xlink:href="#Z"/><use transform="matrix(0.05,0,0,0.05,10,0)" xlink:href="#ab"/><use transform="matrix(0.05,0,0,0.05,20,0)" xlink:href="#Q"/><use transform="matrix(0.05,0,0,0.05,25,0)" xlink:href="#J"/><use transform="matrix(0.05,0,0,0.05,28.950000000000003,0)" xlink:href="#O"/><use transform="matrix(0.05,0,0,0.05,38.95,0)" xlink:href="#K"/><use transform="matrix(0.05,0,0,0.05,48.95,0)" xlink:href="#Q"/><use transform="matrix(0.05,0,0,0.05,53.95,0)" xlink:href="#S"/></g><g id="E"><use transform="matrix(0.05,0,0,0.05,0,0)" xlink:href="#K"/><use transform="matrix(0.05,0,0,0.05,10,0)" xlink:href="#ab"/><use transform="matrix(0.05,0,0,0.05,20,0)" xlink:href="#R"/><use transform="matrix(0.05,0,0,0.05,34.95,0)" xlink:href="#O"/></g><path d="M101-234c-31-9-42 10-38 44h38v23H63V0H32v-167H5v-23h27c-7-52 17-82 69-68v24" id="am"/><path d="M115-194c53 0 69 39 70 98 0 66-23 100-70 100C84 3 66-7 56-30L54 0H23l1-261h32v101c10-23 28-34 59-34zm-8 174c40 0 45-34 45-75 0-40-5-75-45-74-42 0-51 32-51 76 0 43 10 73 51 73" id="an"/><g id="F"><use transform="matrix(0.05,0,0,0.05,0,0)" xlink:href="#V"/><use transform="matrix(0.05,0,0,0.05,10,0)" xlink:href="#ab"/><use transform="matrix(0.05,0,0,0.05,20,0)" xlink:href="#Q"/><use transform="matrix(0.05,0,0,0.05,25,0)" xlink:href="#O"/><use transform="matrix(0.05,0,0,0.05,35,0)" xlink:href="#P"/><use transform="matrix(0.05,0,0,0.05,45,0)" xlink:href="#M"/><use transform="matrix(0.05,0,0,0.05,55,0)" xlink:href="#am"/><use transform="matrix(0.05,0,0,0.05,60,0)" xlink:href="#P"/><use transform="matrix(0.05,0,0,0.05,70,0)" xlink:href="#an"/><use transform="matrix(0.05,0,0,0.05,80,0)" xlink:href="#J"/><use transform="matrix(0.05,0,0,0.05,83.95,0)" xlink:href="#X"/><use transform="matrix(0.05,0,0,0.05,89.9,0)" xlink:href="#Q"/><use transform="matrix(0.05,0,0,0.05,94.9,0)" xlink:href="#ag"/></g><g id="G"><use transform="matrix(0.05,0,0,0.05,0,0)" xlink:href="#V"/><use transform="matrix(0.05,0,0,0.05,10,0)" xlink:href="#ab"/><use transform="matrix(0.05,0,0,0.05,20,0)" xlink:href="#Q"/><use transform="matrix(0.05,0,0,0.05,25,0)" xlink:href="#O"/></g><g id="H"><use transform="matrix(0.05,0,0,0.05,0,0)" xlink:href="#Q"/><use transform="matrix(0.05,0,0,0.05,5,0)" xlink:href="#X"/><use transform="matrix(0.05,0,0,0.05,10.95,0)" xlink:href="#O"/><use transform="matrix(0.05,0,0,0.05,20.95,0)" xlink:href="#ab"/><use transform="matrix(0.05,0,0,0.05,30.950000000000003,0)" xlink:href="#Q"/><use transform="matrix(0.05,0,0,0.05,35.95,0)" xlink:href="#R"/><use transform="matrix(0.05,0,0,0.05,50.900000000000006,0)" xlink:href="#O"/><use transform="matrix(0.05,0,0,0.05,60.900000000000006,0)" xlink:href="#K"/><use transform="matrix(0.05,0,0,0.05,70.9,0)" xlink:href="#Q"/><use transform="matrix(0.05,0,0,0.05,75.9,0)" xlink:href="#S"/></g><g id="I"><use transform="matrix(0.05,0,0,0.05,0,0)" xlink:href="#Q"/><use transform="matrix(0.05,0,0,0.05,5,0)" xlink:href="#ac"/><use transform="matrix(0.05,0,0,0.05,14,0)" xlink:href="#Z"/><use transform="matrix(0.05,0,0,0.05,24,0)" xlink:href="#O"/></g></defs></g></svg>